<svg width="608" height="144" viewBox="0 0 608 144" fill="none" xmlns="http://www.w3.org/2000/svg">
<path d="M121.34 60C125.189 53.3333 134.811 53.3333 138.66 60L155.981 90C159.83 96.6667 155.019 105 147.321 105H112.68C104.982 105 100.17 96.6667 104.019 90L121.34 60Z" fill="url(#paint0_linear_160_2)"/>
<circle cx="424.5" cy="83.5" r="24.5" fill="#FFAA2D"/>
<ellipse cx="412.5" cy="73" rx="3.5" ry="1" fill="black"/>
<ellipse cx="425" cy="93.5" rx="6" ry="5.5" fill="black"/>
<ellipse cx="435.5" cy="73" rx="3.5" ry="1" fill="black"/>
<g filter="url(#filter0_d_160_2)">
<path d="M10.8 108V47.04L9.6 37.44H65.28C74.96 37.44 82.2 39.36 87 43.2C91.88 47.04 94.32 53.04 94.32 61.2V84.12C94.32 92.44 91.92 98.52 87.12 102.36C82.32 106.12 75.04 108 65.28 108H10.8ZM34.2 91.44H61.68C67.84 91.44 70.96 88.6 71.04 82.92V62.16C71.04 59.84 70.36 57.88 69 56.28C67.64 54.6 65.2 53.76 61.68 53.76H34.2V91.44ZM182.299 108C176.219 108 172.059 106.72 169.819 104.16C167.579 101.6 166.459 97.76 166.459 92.64V69.36H156.619V54.24H161.659C163.019 54.24 164.099 54 164.899 53.52C165.779 52.96 166.339 52 166.579 50.64L168.859 37.8H188.539V54.24H208.579V69.36H188.539V87.96C188.539 89.96 189.019 91.28 189.979 91.92C190.939 92.56 192.379 92.88 194.299 92.88H206.299L208.699 106.8C207.019 107.04 204.459 107.32 201.019 107.64C197.579 107.88 193.819 108 189.739 108H182.299ZM236.135 108C229.095 108 224.055 106.68 221.015 104.04C217.975 101.4 216.455 97 216.455 90.84C216.455 85.16 218.015 81.04 221.135 78.48C224.335 75.92 229.335 74.64 236.135 74.64H239.855C244.335 74.64 248.615 74.8 252.695 75.12C256.775 75.44 260.295 75.76 263.255 76.08V74.16C263.255 73.04 263.015 71.96 262.535 70.92C262.055 69.88 260.375 69.36 257.495 69.36H251.495C242.775 69.36 236.055 69.52 231.335 69.84C226.615 70.08 223.695 70.32 222.575 70.56L221.255 57.84C221.255 57.04 222.655 56.4 225.455 55.92C228.255 55.36 232.095 54.96 236.975 54.72C241.855 54.4 247.415 54.24 253.655 54.24H265.655C270.935 54.24 274.975 55.04 277.775 56.64C280.575 58.16 282.495 60.24 283.535 62.88C284.575 65.52 285.095 68.56 285.095 72V108H268.055L263.375 105.6C261.455 106 258.375 106.52 254.135 107.16C249.975 107.72 245.175 108 239.735 108H236.135ZM243.095 93.84H259.655C261.415 93.84 262.455 93.68 262.775 93.36C263.095 93.04 263.255 92.04 263.255 90.36V86.16H243.095C241.575 86.16 240.455 86.44 239.735 87C239.015 87.56 238.655 88.64 238.655 90.24C238.655 91.76 239.015 92.76 239.735 93.24C240.455 93.64 241.575 93.84 243.095 93.84ZM302.48 108V47.04L301.28 37.44H319.52L346.64 85.44L374.72 37.44H390.92V108H375.08V63.24H373.76L369.08 73.68L353.96 100.8H339.44L324.32 73.68L319.52 63.24H318.32V108H302.48ZM460.481 108V54.24H470.321L475.121 56.64C478.481 56 482.521 55.44 487.241 54.96C491.961 54.48 497.361 54.24 503.441 54.24H509.441C513.441 54.24 516.521 54.8 518.681 55.92C520.841 57.04 522.361 58.44 523.241 60.12C524.201 61.8 524.761 63.52 524.921 65.28C525.161 66.96 525.281 68.4 525.281 69.6V108H510.641V69.36C510.641 66.16 508.721 64.56 504.881 64.56H478.721C477.201 64.56 476.201 64.72 475.721 65.04C475.321 65.28 475.121 66 475.121 67.2V108H460.481ZM596.594 109.2C593.234 109.2 590.354 108.8 587.954 108C585.634 107.2 583.154 105.48 580.514 102.84C580.274 102.6 579.634 101.96 578.594 100.92C577.554 99.88 576.394 98.72 575.114 97.44C573.914 96.16 572.794 95 571.754 93.96C570.714 92.92 570.034 92.24 569.714 91.92C567.714 89.92 565.794 88.36 563.954 87.24C562.194 86.12 559.994 85.56 557.354 85.56C555.594 85.56 554.554 85.72 554.234 86.04C553.914 86.36 553.754 87.44 553.754 89.28V108H539.114V32.04H553.754V75.24H557.594C559.034 75.24 560.314 74.68 561.434 73.56C562.154 72.84 563.514 71.4 565.514 69.24C567.514 67.08 569.754 64.64 572.234 61.92C574.794 59.2 577.114 56.68 579.194 54.36H596.834L594.914 58.08C593.074 60 591.074 62.04 588.914 64.2C586.754 66.28 584.634 68.32 582.554 70.32C580.554 72.24 578.714 73.96 577.034 75.48C575.354 76.92 574.074 77.88 573.194 78.36C575.594 79.64 577.754 81.12 579.674 82.8C581.594 84.4 583.674 86.24 585.914 88.32C588.154 90.32 590.834 92.6 593.954 95.16C596.754 97.4 599.354 98.72 601.754 99.12C604.154 99.44 605.594 99.6 606.074 99.6L603.914 108C603.114 108.24 602.034 108.48 600.674 108.72C599.314 109.04 597.954 109.2 596.594 109.2Z" fill="white"/>
</g>
<defs>
<filter id="filter0_d_160_2" x="8.5" y="32.04" width="598.674" height="80.26" filterUnits="userSpaceOnUse" color-interpolation-filters="sRGB">
<feFlood flood-opacity="0" result="BackgroundImageFix"/>
<feColorMatrix in="SourceAlpha" type="matrix" values="0 0 0 0 0 0 0 0 0 0 0 0 0 0 0 0 0 0 127 0" result="hardAlpha"/>
<feOffset dy="2"/>
<feGaussianBlur stdDeviation="0.55"/>
<feComposite in2="hardAlpha" operator="out"/>
<feColorMatrix type="matrix" values="0 0 0 0 0 0 0 0 0 0 0 0 0 0 0 0 0 0 0.62 0"/>
<feBlend mode="normal" in2="BackgroundImageFix" result="effect1_dropShadow_160_2"/>
<feBlend mode="normal" in="SourceGraphic" in2="effect1_dropShadow_160_2" result="shape"/>
</filter>
<linearGradient id="paint0_linear_160_2" x1="130" y1="45" x2="130" y2="125" gradientUnits="userSpaceOnUse">
<stop stop-color="#FFAE00"/>
<stop offset="1" stop-color="#FFA658"/>
</linearGradient>
</defs>
</svg>
